<?xml version="1.0" encoding="UTF-8" standalone="no"?>
<!DOCTYPE svg PUBLIC "-//W3C//DTD SVG 1.1//EN" "http://www.w3.org/Graphics/SVG/1.1/DTD/svg11.dtd">
<svg version="1.1" xmlns="http://www.w3.org/2000/svg" xmlns:xlink="http://www.w3.org/1999/xlink" preserveAspectRatio="xMidYMid meet" viewBox="0 0 640 640" width="640" height="640"><defs><path d="M354.01 314.5C354.01 323.34 388.34 324.34 457.01 317.5C468.34 313.99 473.01 316.66 471.01 325.5C469.01 334.34 433.01 335.92 363.01 330.24" id="c1UmztzizD"></path><path d="M189.53 311.5C189.53 320.34 155.2 321.34 86.53 314.5C75.2 310.99 70.53 313.66 72.53 322.5C74.53 331.34 110.53 332.92 180.53 327.24" id="b4TfjrNIQs"></path><path d="M222.78 376.1C229.64 375.2 225.93 397.73 211.65 443.69C192.47 447.62 185.76 452.6 191.53 458.62C200.18 467.64 216.45 464.24 226.38 465.47C233 466.29 237.25 436.22 239.14 375.25" id="b4JAqsL689"></path><path d="M321.25 381.23C314.64 379.23 314.64 402.06 321.25 449.73C339.54 456.73 345.35 462.73 338.68 467.73C328.68 475.23 313.18 469.23 303.18 468.83C296.51 468.56 297.2 438.19 305.25 377.73" id="d2ZRAB2Nc1"></path><path d="M382.82 414.45L305.04 58.9L157.42 370.01L382.82 414.45Z" id="a17qUE5J3Y"></path><path d="M246.95 304.5C246.95 313.05 239.78 320 230.95 320C222.12 320 214.95 313.05 214.95 304.5C214.95 295.95 222.12 289 230.95 289C239.78 289 246.95 295.95 246.95 304.5Z" id="j3YC3fDO2u"></path><path d="M241.45 301.5C241.45 307.02 236.75 311.5 230.95 311.5C225.15 311.5 220.45 307.02 220.45 301.5C220.45 295.98 225.15 291.5 230.95 291.5C236.75 291.5 241.45 295.98 241.45 301.5Z" id="cGMpJxDg0"></path><path d="M336 307C336 315.55 328.83 322.5 320 322.5C311.17 322.5 304 315.55 304 307C304 298.45 311.17 291.5 320 291.5C328.83 291.5 336 298.45 336 307Z" id="d4FydkuW2X"></path><path d="M330.5 304.5C330.5 310.02 325.8 314.5 320 314.5C314.2 314.5 309.5 310.02 309.5 304.5C309.5 298.98 314.2 294.5 320 294.5C325.8 294.5 330.5 298.98 330.5 304.5Z" id="c56kX8idx"></path><path d="M285.89 353.96C288.19 323.19 277.7 321.21 254.45 348.04L285.89 353.96" id="egHZfWszo"></path><path d="" id="b1vyXyeQ4H"></path><path d="" id="bKHUn0ND5"></path><path d="" id="f1z7M76Phb"></path><path d="" id="b3kZDibGDb"></path><path d="" id="b4MpOYVbhI"></path><path d="M275.95 352.2C281.48 340.83 277.37 340.04 263.62 349.83" id="aEsLGaySy"></path></defs><g><g><g><use xlink:href="#c1UmztzizD" opacity="1" fill="#000000" fill-opacity="1"></use><g><use xlink:href="#c1UmztzizD" opacity="1" fill-opacity="0" stroke="#000000" stroke-width="1" stroke-opacity="1"></use></g></g><g><use xlink:href="#b4TfjrNIQs" opacity="1" fill="#000000" fill-opacity="1"></use><g><use xlink:href="#b4TfjrNIQs" opacity="1" fill-opacity="0" stroke="#000000" stroke-width="1" stroke-opacity="1"></use></g></g><g><use xlink:href="#b4JAqsL689" opacity="1" fill="#000000" fill-opacity="1"></use><g><use xlink:href="#b4JAqsL689" opacity="1" fill-opacity="0" stroke="#000000" stroke-width="1" stroke-opacity="1"></use></g></g><g><use xlink:href="#d2ZRAB2Nc1" opacity="1" fill="#000000" fill-opacity="1"></use><g><use xlink:href="#d2ZRAB2Nc1" opacity="1" fill-opacity="0" stroke="#000000" stroke-width="1" stroke-opacity="1"></use></g></g><g><use xlink:href="#a17qUE5J3Y" opacity="1" fill="#982870" fill-opacity="1"></use></g><g><use xlink:href="#j3YC3fDO2u" opacity="1" fill="#ffffff" fill-opacity="1"></use></g><g><use xlink:href="#cGMpJxDg0" opacity="1" fill="#000000" fill-opacity="1"></use></g><g><use xlink:href="#d4FydkuW2X" opacity="1" fill="#ffffff" fill-opacity="1"></use></g><g><use xlink:href="#c56kX8idx" opacity="1" fill="#000000" fill-opacity="1"></use></g><g><use xlink:href="#egHZfWszo" opacity="1" fill="#da4141" fill-opacity="1"></use></g><g><g><use xlink:href="#b1vyXyeQ4H" opacity="1" fill-opacity="0" stroke="#a22020" stroke-width="1" stroke-opacity="1"></use></g></g><g><g><use xlink:href="#bKHUn0ND5" opacity="1" fill-opacity="0" stroke="#3f2626" stroke-width="1" stroke-opacity="1"></use></g></g><g><g><use xlink:href="#f1z7M76Phb" opacity="1" fill-opacity="0" stroke="#3f2626" stroke-width="1" stroke-opacity="1"></use></g></g><g><g><use xlink:href="#b3kZDibGDb" opacity="1" fill-opacity="0" stroke="#3f2626" stroke-width="1" stroke-opacity="1"></use></g></g><g><g><use xlink:href="#b4MpOYVbhI" opacity="1" fill-opacity="0" stroke="#3f2626" stroke-width="1" stroke-opacity="1"></use></g></g><g><use xlink:href="#aEsLGaySy" opacity="1" fill="#b40f0f" fill-opacity="1"></use></g></g></g></svg>